<?xml version="1.0" standalone="no"?><!DOCTYPE svg PUBLIC "-//W3C//DTD SVG 1.1//EN" "http://www.w3.org/Graphics/SVG/1.1/DTD/svg11.dtd"><svg t="1598790528728" class="icon" viewBox="0 0 1050 1024" version="1.1" xmlns="http://www.w3.org/2000/svg" p-id="9595" xmlns:xlink="http://www.w3.org/1999/xlink" width="205.078125" height="200"><defs><style type="text/css"></style></defs><path d="M864.273444 1023.999912h-678.290482A185.807831 185.807831 0 0 1 0.000088 838.017038v-652.034076A185.807831 185.807831 0 0 1 185.982962 0.000088h678.290482A185.807831 185.807831 0 0 1 1050.256318 185.982962v652.034076a185.807831 185.807831 0 0 1-185.982874 185.982874z" fill="#26C9FF" p-id="9596"></path><path d="M847.644387 980.239236H202.612019A159.113819 159.113819 0 0 1 43.760764 821.387981V202.612019A159.113819 159.113819 0 0 1 202.612019 43.760764h644.594761a158.851255 158.851255 0 0 1 158.851255 158.851255v618.338356a158.54493 158.54493 0 0 1-158.413648 159.288861z" fill="#061E26" p-id="9597"></path><path d="M258.188078 256.437651c0-2.625641 0.875214-4.813674 4.376067-4.813675 27.569226-1.31282 66.953835-2.188034 109.401691-2.188034 118.153826 0 169.791424 64.765801 169.791424 147.911086 0 108.526477-79.644431 154.912794-175.917919 154.912794-16.19145 0-21.880338-0.875214-33.258114-0.875213v166.29057c0 3.500854-1.31282 4.813674-4.813674 4.813674H263.001752c-3.500854 0-4.813674-1.31282-4.813674-4.813674z m74.393149 226.680303c9.627349 0.875214 17.504271 0.875214 34.570935 0.875213 49.887171 0 97.586308-17.504271 97.586308-85.333319 0-54.263239-34.133327-81.832465-91.459814-81.832464-17.066664 0-33.258114 0.875214-40.697429 1.31282z m381.593097-50.762385c-33.695721 0-45.073497 17.066664-45.073496 31.07008 0 15.316237 7.876922 26.256406 52.950418 49.449565 66.953835 32.3829 87.958959 63.452981 87.958959 109.40169 0 68.266655-52.075205 105.025623-122.529893 105.025623-37.196575 0-70.454689-7.876922-88.834173-18.379484a6.739144 6.739144 0 0 1-3.500854-7.001708V638.905961c0-4.376068 2.188034-5.688888 4.813674-3.500854a164.233818 164.233818 0 0 0 87.521353 25.381192c33.695721 0 47.699137-14.003416 47.699137-33.258114 0-15.316237-9.627349-28.882046-52.950418-51.637598-60.82734-28.882046-85.770926-58.639306-85.770926-107.651263 0-55.138452 42.885463-100.649555 117.716219-100.649556 36.758968 0 63.890587 5.688888 77.894004 11.815383a9.452306 9.452306 0 0 1 4.376068 8.314528V446.358986a4.376068 4.376068 0 0 1-6.126495 4.376067c-19.254698-11.377776-48.574351-18.379484-76.143577-18.379484z" fill="#D9F5FF" p-id="9598"></path></svg>