<?xml version="1.0" standalone="no"?><!DOCTYPE svg PUBLIC "-//W3C//DTD SVG 1.1//EN" "http://www.w3.org/Graphics/SVG/1.1/DTD/svg11.dtd"><svg t="1598785084749" class="icon" viewBox="0 0 1024 1024" version="1.1" xmlns="http://www.w3.org/2000/svg" p-id="5909" xmlns:xlink="http://www.w3.org/1999/xlink" width="200" height="200"><defs><style type="text/css"></style></defs><path d="M964.128 1024H59.968a60.16 60.16 0 0 1-60-59.968V60A60.16 60.16 0 0 1 59.936 0h904.16a60.16 60.16 0 0 1 60 59.968v904.032A60.16 60.16 0 0 1 964.128 1024zM508.192 89.984C277.568 92 91.648 281.216 89.984 511.968c-1.696 234.976 186.912 421.76 421.984 421.984 231.04 0.128 417.952-192 421.984-421.984 4.128-237.728-188-424.064-425.728-421.984z m-96.448 278.368l-37.92 92.128h279.008l-37.92-92.128 283.392 143.584-283.392 143.584 37.92-92.128h-279.008l37.632 92.128-284.128-143.584z" fill="#0E8EE9" p-id="5910"></path></svg>