<?xml version="1.0" standalone="no"?><!DOCTYPE svg PUBLIC "-//W3C//DTD SVG 1.1//EN" "http://www.w3.org/Graphics/SVG/1.1/DTD/svg11.dtd"><svg t="1598784514463" class="icon" viewBox="0 0 1024 1024" version="1.1" xmlns="http://www.w3.org/2000/svg" p-id="4758" xmlns:xlink="http://www.w3.org/1999/xlink" width="200" height="200"><defs><style type="text/css"></style></defs><path d="M384 0h512A128 128 0 0 1 1024 128v516.958316a128 128 0 0 1-128 128h-512a128 128 0 0 1-128-128V128A128 128 0 0 1 384 0z m64 128.808421a64 64 0 0 0-64 64.026947v387.287579a64 64 0 0 0 64 64h384a64 64 0 0 0 64-64V192.835368a64 64 0 0 0-64-64h-384z" fill="#068BEF" p-id="4759"></path><path d="M128 251.041684h512a128 128 0 0 1 128 128V896A128 128 0 0 1 640 1024h-512A128 128 0 0 1 0 896V379.041684a128 128 0 0 1 128-128z m64 128.808421a64 64 0 0 0-64 64.026948v387.287579a64 64 0 0 0 64 64h384a64 64 0 0 0 64-64V443.877053a64 64 0 0 0-64-64H192z" fill="#FF8B02" p-id="4760"></path><path d="M512 644.122947h320v128.835369H512z" fill="#068BEF" p-id="4761"></path><path d="M256 379.877053h128L256 476.483368z" fill="#057EAF" p-id="4762"></path><path d="M768 772.958316h-128l128 96.606316z" fill="#D77D06" p-id="4763"></path></svg>