<?xml version="1.0" standalone="no"?><!DOCTYPE svg PUBLIC "-//W3C//DTD SVG 1.1//EN" "http://www.w3.org/Graphics/SVG/1.1/DTD/svg11.dtd"><svg t="1606482378081" class="icon" viewBox="0 0 1024 1024" version="1.1" xmlns="http://www.w3.org/2000/svg" p-id="3515" width="128" height="128" xmlns:xlink="http://www.w3.org/1999/xlink"><defs><style type="text/css"></style></defs><path d="M510.920649 498.162162L956.499027 761.081081 510.920649 1024 70.877405 761.081081z" fill="#CADDFE" p-id="3516"></path><path d="M510.920649 359.783784L956.499027 622.702703 510.920649 885.621622 70.877405 622.702703z" fill="#449EFE" p-id="3517"></path><path d="M508.153081 509.232432l2.767568 246.313514-426.205406-249.081081V262.918919z" fill="#FFFFFF" p-id="3518"></path><path d="M505.385514 509.232432v246.313514l442.81081-254.616216-2.767567-243.545946z" fill="#FFFFFF" p-id="3519"></path><path d="M510.920649 16.605405L98.553081 262.918919l412.367568 246.313513L928.823351 262.918919 510.920649 16.605405z" fill="#FFFFFF" p-id="3520"></path><path d="M510.920649 525.837838L70.877405 262.918919 510.920649 0 956.499027 262.918919 510.920649 525.837838zM126.228757 262.918919l387.459459 229.708108 387.45946-229.708108-390.227027-229.708108L126.228757 262.918919z" fill="#333333" p-id="3521"></path><path d="M70.877405 262.918919h27.675676v249.081081H70.877405zM926.055784 262.918919h27.675675v249.081081h-27.675675z" fill="#333333" p-id="3522"></path><path d="M495.892757 737.639784l441.288648-248.555243 13.588757 24.077837-441.288648 248.610595z" fill="#333333" p-id="3523"></path><path d="M67.500973 511.944649l13.561081-24.13319 441.427027 248.333838-13.561081 24.133189z" fill="#333333" p-id="3524"></path><path d="M577.34227 290.594595l-55.351351-41.513514c5.535135-5.535135 11.07027-8.302703 13.837838-13.837838 2.767568-2.767568 5.535135-8.302703 8.302702-11.07027l80.25946-16.605405c2.767568 5.535135 8.302703 8.302703 19.372973 8.302702 19.372973 0 47.048649-8.302703 58.118919-22.14054 11.07027-13.837838 5.535135-27.675676-13.837838-27.675676s-47.048649 8.302703-58.118919 22.140541l-2.767568 2.767567-80.259459 16.605406c-2.767568-11.07027-13.837838-19.372973-33.210811-19.372973-33.210811-2.767568-77.491892 13.837838-96.864865 38.745946-16.605405 19.372973-13.837838 35.978378 2.767568 41.513513L378.077405 304.432432c-19.372973 0-41.513514 11.07027-52.583783 22.140541-11.07027 13.837838-5.535135 27.675676 13.837837 27.675676s47.048649-8.302703 58.118919-22.140541c8.302703-8.302703 8.302703-19.372973 0-24.908108l41.513514-35.978378c16.605405 0 38.745946-2.767568 55.351351-11.070271l55.351352 41.513514-5.535136 5.535135c-11.07027 13.837838-5.535135 27.675676 13.837838 27.675676s47.048649-8.302703 58.118919-22.140541c11.07027-13.837838 5.535135-27.675676-13.837838-27.675676-5.535135 2.767568-13.837838 2.767568-24.908108 5.535136z" fill="#007BFC" p-id="3525"></path></svg>