<svg xmlns="http://www.w3.org/2000/svg" viewBox="0 0 24 24" width="24" height="24" preserveAspectRatio="xMidYMid meet" style="width: 100%; height: 100%; transform: translate3d(0px, 0px, 0px);"><defs><clipPath id="__lottie_element_38"><rect width="24" height="24" x="0" y="0"></rect></clipPath><clipPath id="__lottie_element_40"><path d="M0,0 L360,0 L360,360 L0,360z"></path></clipPath></defs><g clip-path="url(#__lottie_element_38)"><g clip-path="url(#__lottie_element_40)" transform="matrix(0.0666700005531311,0,0,0.0666700005531311,-0.0005998611450195312,-0.0005998611450195312)" opacity="1" style="display: block;"><g transform="matrix(0.7799999713897705,0,0,0.7799999713897705,32.60011291503906,56.09967041015625)" opacity="1" style="display: block;"><g opacity="1" transform="matrix(1,0,0,1,179.45799255371094,182.93299865722656)"><path fill="rgb(223,184,18)" fill-opacity="1" d=" M172.2449951171875,-158.60499572753906 C172.20700073242188,-159.99099731445312 171.63999938964844,-161.30999755859375 170.6580047607422,-162.2899932861328 C172.02499389648438,-166.07699584960938 166.781005859375,-168.62100219726562 164.65199279785156,-165.20399475097656 C164.65199279785156,-165.20399475097656 133.26699829101562,-114.8270034790039 133.26699829101562,-114.8270034790039 C133.26699829101562,-114.8270034790039 111.8219985961914,-72.53299713134766 111.8219985961914,-72.53299713134766 C111.8219985961914,-72.53299713134766 111.52200317382812,-72.58399963378906 111.52200317382812,-72.58399963378906 C111.31400299072266,-71.4280014038086 111.04100036621094,-70.24500274658203 110.58300018310547,-69.13600158691406 C102.97899627685547,-50.72100067138672 95.18000030517578,-32.387001037597656 87.52100372314453,-13.994999885559082 C85.93800354003906,-10.192999839782715 84.69499969482422,-6.25 83.03399658203125,-1.6460000276565552 C64.52799987792969,-46.0620002746582 46.52000045776367,-89.28199768066406 28.33300018310547,-132.9340057373047 C28.33300018310547,-132.9340057373047 12.052000045776367,-168.46200561523438 12.052000045776367,-168.46200561523438 C11.293999671936035,-170.11599731445312 9.369999885559082,-170.9199981689453 7.679999828338623,-170.24899291992188 C6.160999774932861,-169.64599609375 4.934000015258789,-168.4810028076172 4.252999782562256,-166.99899291992188 C4.252999782562256,-166.99899291992188 0.04699999839067459,-157.85899353027344 0.04699999839067459,-157.85899353027344 C-0.4440000057220459,-156.79100036621094 -0.8410000205039978,-155.68299865722656 -1.2050000429153442,-154.56300354003906 C-1.440999984741211,-153.8350067138672 -1.7120000123977661,-153.13999938964844 -1.9869999885559082,-152.5279998779297 C-10.769000053405762,-133.01100158691406 -19.982999801635742,-113.68800354003906 -28.679000854492188,-94.13500213623047 C-36.709999084472656,-76.0790023803711 -44.645999908447266,-57.96200180053711 -51.8849983215332,-39.58100128173828 C-56.24599838256836,-28.510000228881836 -59.17399978637695,-16.87700080871582 -62.801998138427734,-5.513999938964844 C-63.369998931884766,-3.7360000610351562 -64.23899841308594,-2.055000066757202 -65.6989974975586,1.3980000019073486 C-68.10099792480469,-2.802999973297119 -69.47899627685547,-5.544000148773193 -71.15299987792969,-8.092000007629395 C-87.21299743652344,-32.529998779296875 -102.84500122070312,-57.270999908447266 -119.625,-81.20500183105469 C-127.60299682617188,-92.58399963378906 -137.83200073242188,-102.37899780273438 -146.94900512695312,-112.97100067138672 C-148.37600708007812,-114.62799835205078 -149.0500030517578,-116.96299743652344 -150.55499267578125,-118.51899719238281 C-151.8209991455078,-119.8290023803711 -153.78900146484375,-120.46199798583984 -155.44700622558594,-121.3949966430664 C-156.23199462890625,-119.95700073242188 -157.35499572753906,-118.60299682617188 -157.73399353027344,-117.06500244140625 C-158.66200256347656,-113.29299926757812 -159.5919952392578,-109.46499633789062 -159.91400146484375,-105.60800170898438 C-161.63299560546875,-85.00499725341797 -163.27699279785156,-64.39399719238281 -164.72999572753906,-43.77000045776367 C-166.0229949951172,-25.39699935913086 -167.21600341796875,-7.013999938964844 -168.10699462890625,11.380000114440918 C-168.73800659179688,24.406999588012695 -168.8300018310547,37.459999084472656 -169.093994140625,50.50299835205078 C-169.4409942626953,67.625 -169.8419952392578,84.74800109863281 -169.9770050048828,101.87200164794922 C-170.04800415039062,110.81800079345703 -169.43299865722656,119.76899719238281 -169.4340057373047,128.7169952392578 C-169.43499755859375,136.86900329589844 -170.25599670410156,151.91299438476562 -170.2449951171875,153.16000366210938 C-170.2220001220703,155.85699462890625 -170.78399658203125,153.87600708007812 -172.19900512695312,154.3000030517578 C-173.19400024414062,154.59800720214844 -174.32699584960938,155.3719940185547 -174.38299560546875,155.68099975585938 C-174.5189971923828,156.41900634765625 -174.47799682617188,157.17300415039062 -175.00999450683594,159.7830047607422 C-175.10299682617188,161.04800415039062 -173.3560028076172,161.63800048828125 -173.447998046875,162.9040069580078 C-171.4550018310547,163.62399291992188 -170.72799682617188,165.65699768066406 -168.73399353027344,166.375 C-159.89700317382812,169.56300354003906 -163.45799255371094,167.73399353027344 -154.6199951171875,170.9199981689453 C-154.6199951171875,170.9199981689453 -121.3479995727539,165.65499877929688 -97.79299926757812,154.302001953125 C-74.23699951171875,142.94900512695312 -55.19900131225586,137.50999450683594 -26.16699981689453,134.08999633789062 C-4.636000156402588,131.5540008544922 22.3700008392334,128.3769989013672 49.513999938964844,129.9149932861328 C49.513999938964844,129.9149932861328 73.3740005493164,132.63499450683594 73.3740005493164,132.63499450683594 C74.82099914550781,132.8939971923828 76.26499938964844,133.16400146484375 77.7030029296875,133.45899963378906 C104.7020034790039,139.01800537109375 133.53700256347656,147.75599670410156 146.13499450683594,151.73399353027344 C150.5229949951172,153.1199951171875 155.10699462890625,153.76800537109375 159.70799255371094,153.6490020751953 C159.70799255371094,153.6490020751953 161.70700073242188,151.56900024414062 161.70700073242188,151.56900024414062 C161.70700073242188,151.56900024414062 166.45799255371094,143.3560028076172 166.45799255371094,143.3560028076172 C166.6060028076172,140.96600341796875 165.1439971923828,138.18299865722656 165.30099487304688,135.86500549316406 C167.59500122070312,101.83899688720703 170.74000549316406,67.86599731445312 172.6219940185547,33.82099914550781 C173.92799377441406,10.210000038146973 173.57200622558594,-13.491000175476074 174.05099487304688,-37.14899826049805 C174.06900024414062,-38.060001373291016 174.13800048828125,-38.96900177001953 174.23800659179688,-39.917999267578125 C174.947998046875,-46.61899948120117 175.10400390625,-53.36600112915039 174.92100524902344,-60.10200119018555 C174.92100524902344,-60.10200119018555 172.2449951171875,-158.60499572753906 172.2449951171875,-158.60499572753906z"></path></g></g><g transform="matrix(0.7799999713897705,0,0,0.7799999713897705,32.59989929199219,55.599517822265625)" opacity="1" style="display: block;"><g opacity="1" transform="matrix(1,0,0,1,179.4530029296875,183.0760040283203)"><path fill="rgb(255,248,199)" fill-opacity="1" d=" M172.24899291992188,-158.7480010986328 C172.21099853515625,-160.13400268554688 171.6439971923828,-161.4530029296875 170.66200256347656,-162.43299865722656 C172.0290069580078,-166.22000122070312 166.78599548339844,-168.76400756835938 164.65699768066406,-165.3470001220703 C164.65699768066406,-165.3470001220703 133.27200317382812,-114.97000122070312 133.27200317382812,-114.97000122070312 C133.27200317382812,-114.97000122070312 111.82599639892578,-72.6760025024414 111.82599639892578,-72.6760025024414 C111.82599639892578,-72.6760025024414 111.5270004272461,-72.72699737548828 111.5270004272461,-72.72699737548828 C111.31900024414062,-71.57099914550781 111.0459976196289,-70.38800048828125 110.58799743652344,-69.27899932861328 C102.98400115966797,-50.86399841308594 95.18499755859375,-32.529998779296875 87.5260009765625,-14.137999534606934 C85.94300079345703,-10.336000442504883 84.69999694824219,-6.39300012588501 83.03900146484375,-1.7890000343322754 C64.53299713134766,-46.20500183105469 46.525001525878906,-89.42500305175781 28.33799934387207,-133.07699584960938 C28.33799934387207,-133.07699584960938 12.055999755859375,-168.60499572753906 12.055999755859375,-168.60499572753906 C11.29699993133545,-170.25900268554688 9.37399959564209,-171.06300354003906 7.684000015258789,-170.39199829101562 C6.164999961853027,-169.78900146484375 4.938000202178955,-168.62399291992188 4.256999969482422,-167.14199829101562 C4.256999969482422,-167.14199829101562 0.050999999046325684,-158.0030059814453 0.050999999046325684,-158.0030059814453 C-0.4399999976158142,-156.9340057373047 -0.8379999995231628,-155.8260040283203 -1.2009999752044678,-154.70599365234375 C-1.437000036239624,-153.97799682617188 -1.7079999446868896,-153.2830047607422 -1.9830000400543213,-152.67100524902344 C-10.765000343322754,-133.1540069580078 -19.979000091552734,-113.83100128173828 -28.676000595092773,-94.27799987792969 C-36.70600128173828,-76.22200012207031 -44.641998291015625,-58.10499954223633 -51.88100051879883,-39.7239990234375 C-56.242000579833984,-28.652999877929688 -59.16999816894531,-17.020000457763672 -62.79800033569336,-5.6570000648498535 C-63.36600112915039,-3.878999948501587 -64.23500061035156,-2.197999954223633 -65.69499969482422,1.2549999952316284 C-68.09700012207031,-2.946000099182129 -69.4749984741211,-5.686999797821045 -71.14900207519531,-8.234999656677246 C-87.20899963378906,-32.67300033569336 -102.84100341796875,-57.41400146484375 -119.62100219726562,-81.3479995727539 C-127.5989990234375,-92.72699737548828 -137.8280029296875,-102.52200317382812 -146.94500732421875,-113.11399841308594 C-148.3719940185547,-114.77100372314453 -149.0449981689453,-117.10600280761719 -150.5500030517578,-118.66200256347656 C-151.8159942626953,-119.9729995727539 -153.78399658203125,-120.6050033569336 -155.44200134277344,-121.53800201416016 C-156.2270050048828,-120.0999984741211 -157.3509979248047,-118.74600219726562 -157.72999572753906,-117.20800018310547 C-158.6580047607422,-113.43599700927734 -159.58799743652344,-109.60800170898438 -159.91000366210938,-105.75199890136719 C-161.62899780273438,-85.14800262451172 -163.2729949951172,-64.53700256347656 -164.7259979248047,-43.91299819946289 C-166.0189971923828,-25.540000915527344 -167.21099853515625,-7.1570000648498535 -168.1020050048828,11.237000465393066 C-168.73300170898438,24.263999938964844 -168.8249969482422,37.31700134277344 -169.08900451660156,50.36000061035156 C-169.43600463867188,67.48200225830078 -169.83700561523438,84.6050033569336 -169.9720001220703,101.72899627685547 C-170.04299926757812,110.67500305175781 -169.4290008544922,119.6259994506836 -169.42999267578125,128.57400512695312 C-169.43099975585938,136.7259979248047 -170.2519989013672,151.77000427246094 -170.24099731445312,153.01699829101562 C-170.21800231933594,155.71400451660156 -170.77999877929688,153.73300170898438 -172.19500732421875,154.15699768066406 C-173.19000244140625,154.4550018310547 -174.32200622558594,155.22900390625 -174.3780059814453,155.53799438476562 C-174.51400756835938,156.2760009765625 -174.4739990234375,157.02999877929688 -175.00599670410156,159.63999938964844 C-175.0989990234375,160.90499877929688 -173.3520050048828,161.4949951171875 -173.44400024414062,162.76100158691406 C-171.4510040283203,163.4810028076172 -170.7239990234375,165.51400756835938 -168.72999572753906,166.23199462890625 C-159.89300537109375,169.4199981689453 -163.45399475097656,167.59100341796875 -154.61599731445312,170.77699279785156 C-154.61599731445312,170.77699279785156 -152.7760009765625,171.06300354003906 -143.4530029296875,168.9239959716797 C-143.4530029296875,168.9239959716797 -144.6529998779297,105.14900207519531 -142.4530029296875,58.92399978637695 C-140.2530059814453,12.697999954223633 -135.4530029296875,-57.07600021362305 -135.4530029296875,-57.07600021362305 C-135.4530029296875,-57.07600021362305 -57.452999114990234,48.92399978637695 -57.452999114990234,48.92399978637695 C-57.452999114990234,48.92399978637695 11.54699993133545,-116.07599639892578 11.54699993133545,-116.07599639892578 C11.54699993133545,-116.07599639892578 80.5469970703125,45.92399978637695 80.5469970703125,45.92399978637695 C80.5469970703125,45.92399978637695 161.5469970703125,-105.07599639892578 161.5469970703125,-105.07599639892578 C161.5469970703125,-105.07599639892578 174.3350067138672,-41.130001068115234 174.3350067138672,-41.130001068115234 C174.95199584960938,-47.479000091552734 175.0989990234375,-53.867000579833984 174.9250030517578,-60.244998931884766 C174.9250030517578,-60.244998931884766 172.24899291992188,-158.7480010986328 172.24899291992188,-158.7480010986328z"></path></g></g></g></g></svg>